<svg width="212" height="31" viewBox="0 0 212 31" fill="none" xmlns="http://www.w3.org/2000/svg">
<path d="M0.601094 30L16.8411 0.839999H22.0811L26.4011 30H22.2411L21.2811 23.2H8.80109L5.04109 30H0.601094ZM10.5211 19.8H20.8811L19.3211 8.96L18.7611 5.2H18.5611L16.6411 8.88L10.5211 19.8ZM30.1358 30L36.1758 0.839999H48.8158C51.4291 0.839999 53.3758 1.46667 54.6558 2.72C55.9358 3.94667 56.5358 5.56 56.4558 7.56C56.3758 9.45333 55.7624 11.0667 54.6158 12.4C53.4958 13.7333 52.1224 14.5867 50.4958 14.96L50.4558 15.16C51.7358 15.48 52.7224 16.2 53.4158 17.32C54.1358 18.44 54.4691 19.7467 54.4158 21.24C54.3091 24.0933 53.2558 26.2667 51.2558 27.76C49.2558 29.2533 46.5491 30 43.1358 30H30.1358ZM37.8158 13.44H46.0958C47.8024 13.44 49.1891 12.9867 50.2558 12.08C51.3491 11.1467 51.9091 9.88 51.9358 8.28C52.0158 6.94666 51.6691 5.94666 50.8958 5.28C50.1224 4.61333 49.0558 4.28 47.6958 4.28H39.6558L37.8158 13.44ZM35.0158 26.56H43.2158C45.3224 26.56 46.9624 26.08 48.1358 25.12C49.3358 24.16 49.9624 22.7867 50.0158 21C50.0691 19.6667 49.6958 18.6267 48.8958 17.88C48.1224 17.1067 47.0291 16.72 45.6158 16.72H37.0958L35.0158 26.56ZM70.952 30.4C68.3387 30.4 66.0987 29.8533 64.232 28.76C62.392 27.64 60.992 26.0933 60.032 24.12C59.0987 22.12 58.672 19.8 58.752 17.16C58.8854 13.8267 59.6187 10.9067 60.952 8.4C62.312 5.89333 64.1387 3.94667 66.432 2.56C68.7254 1.14667 71.3654 0.439999 74.352 0.439999C76.992 0.439999 79.232 0.999999 81.072 2.12C82.912 3.24 84.2987 4.78667 85.232 6.76C86.192 8.73333 86.6187 11.04 86.512 13.68C86.4054 17.0133 85.672 19.9333 84.312 22.44C82.9787 24.9467 81.1654 26.9067 78.872 28.32C76.5787 29.7067 73.9387 30.4 70.952 30.4ZM71.072 26.68C73.232 26.68 75.112 26.1333 76.712 25.04C78.3387 23.9467 79.6054 22.4133 80.512 20.44C81.4454 18.4667 81.9654 16.1733 82.072 13.56C82.1787 10.52 81.512 8.2 80.072 6.6C78.632 4.97333 76.6587 4.16 74.152 4.16C72.0187 4.16 70.152 4.70667 68.552 5.8C66.952 6.89333 65.6854 8.42667 64.752 10.4C63.8187 12.3467 63.312 14.64 63.232 17.28C63.1254 20.3467 63.792 22.68 65.232 24.28C66.6987 25.88 68.6454 26.68 71.072 26.68ZM99.912 30.4C97.3254 30.4 95.192 29.9067 93.512 28.92C91.8587 27.9067 90.712 26.5067 90.072 24.72C89.4587 22.9067 89.4054 20.8267 89.912 18.48L93.592 0.839999H97.792L94.112 18.6C93.5787 21.0533 93.8854 22.9867 95.032 24.4C96.2054 25.8133 97.9787 26.52 100.352 26.52C102.592 26.52 104.419 25.92 105.832 24.72C107.272 23.52 108.285 21.5733 108.872 18.88L112.632 0.839999H116.872L112.912 19.68C112.165 23.1733 110.699 25.84 108.512 27.68C106.352 29.4933 103.485 30.4 99.912 30.4ZM122.771 30L128.011 4.64H119.171L119.931 0.839999H142.051L141.291 4.64H132.331L127.091 30H122.771ZM148.847 30L154.887 0.839999H161.487L164.887 23.16H165.087L177.487 0.839999H184.327L178.247 30H174.047L176.887 16.36L179.247 5.44H178.967L165.527 30H161.847L158.367 5.44H158.047L155.887 16.4L153.047 30H148.847ZM185.409 30L191.449 0.839999H211.249L210.489 4.6H194.929L193.129 13.36H206.809L206.049 16.92H192.409L190.449 26.24H206.009L205.249 30H185.409Z" fill="#6AF961"/>
</svg>
