<svg width="258" height="31" viewBox="0 0 258 31" fill="none" xmlns="http://www.w3.org/2000/svg">
<path d="M12.4109 30.4C9.77094 30.4 7.5176 29.8533 5.65094 28.76C3.78427 27.64 2.37094 26.0933 1.41094 24.12C0.477604 22.12 0.0509376 19.8 0.130938 17.16C0.264271 13.8 0.997604 10.88 2.33094 8.4C3.69094 5.89333 5.5176 3.94667 7.81094 2.56C10.1309 1.17333 12.7976 0.479999 15.8109 0.479999C18.1309 0.479999 20.1709 0.919998 21.9309 1.8C23.7176 2.65333 25.1043 3.85333 26.0909 5.4C27.1043 6.92 27.6243 8.68 27.6509 10.68H23.3709C23.2643 8.76 22.5043 7.2 21.0909 6C19.6776 4.77333 17.8509 4.16 15.6109 4.16C13.4509 4.16 11.5576 4.70667 9.93094 5.8C8.33094 6.89333 7.06427 8.42667 6.13094 10.4C5.1976 12.3733 4.69094 14.6667 4.61094 17.28C4.50427 20.3467 5.17094 22.68 6.61094 24.28C8.05094 25.8533 9.97094 26.64 12.3709 26.64C14.7176 26.6667 16.7043 26.1067 18.3309 24.96C19.9576 23.7867 21.0643 22.2 21.6509 20.2H26.0109C25.5576 22.3067 24.6909 24.12 23.4109 25.64C22.1309 27.16 20.5443 28.3333 18.6509 29.16C16.7576 29.9867 14.6776 30.4 12.4109 30.4ZM42.6825 30.4C40.0692 30.4 37.8292 29.8533 35.9625 28.76C34.1225 27.64 32.7225 26.0933 31.7625 24.12C30.8292 22.12 30.4025 19.8 30.4825 17.16C30.6158 13.8267 31.3492 10.9067 32.6825 8.4C34.0425 5.89333 35.8692 3.94667 38.1625 2.56C40.4558 1.14667 43.0958 0.439999 46.0825 0.439999C48.7225 0.439999 50.9625 0.999999 52.8025 2.12C54.6425 3.24 56.0292 4.78667 56.9625 6.76C57.9225 8.73333 58.3492 11.04 58.2425 13.68C58.1358 17.0133 57.4025 19.9333 56.0425 22.44C54.7092 24.9467 52.8958 26.9067 50.6025 28.32C48.3092 29.7067 45.6692 30.4 42.6825 30.4ZM42.8025 26.68C44.9625 26.68 46.8425 26.1333 48.4425 25.04C50.0692 23.9467 51.3358 22.4133 52.2425 20.44C53.1758 18.4667 53.6958 16.1733 53.8025 13.56C53.9092 10.52 53.2425 8.2 51.8025 6.6C50.3625 4.97333 48.3892 4.16 45.8825 4.16C43.7492 4.16 41.8825 4.70667 40.2825 5.8C38.6825 6.89333 37.4158 8.42667 36.4825 10.4C35.5492 12.3467 35.0425 14.64 34.9625 17.28C34.8558 20.3467 35.5225 22.68 36.9625 24.28C38.4292 25.88 40.3758 26.68 42.8025 26.68ZM59.5225 30L65.5625 0.839999H70.6425L80.4825 24H80.7225L82.4025 14.6L85.2825 0.839999H89.5225L83.4825 30H78.3625L68.6025 6.92H68.3625L66.7225 16L63.8025 30H59.5225ZM96.3763 30L101.616 4.64H92.7763L93.5363 0.839999H115.656L114.896 4.64H105.936L100.696 30H96.3763ZM107.292 30L123.533 0.839999H128.773L133.093 30H128.933L127.973 23.2H115.493L111.733 30H107.292ZM117.213 19.8H127.573L126.013 8.96L125.453 5.2H125.253L123.333 8.88L117.213 19.8ZM148.075 30.4C145.435 30.4 143.182 29.8533 141.315 28.76C139.448 27.64 138.035 26.0933 137.075 24.12C136.142 22.12 135.715 19.8 135.795 17.16C135.928 13.8 136.662 10.88 137.995 8.4C139.355 5.89333 141.182 3.94667 143.475 2.56C145.795 1.17333 148.462 0.479999 151.475 0.479999C153.795 0.479999 155.835 0.919998 157.595 1.8C159.382 2.65333 160.768 3.85333 161.755 5.4C162.768 6.92 163.288 8.68 163.315 10.68H159.035C158.928 8.76 158.168 7.2 156.755 6C155.342 4.77333 153.515 4.16 151.275 4.16C149.115 4.16 147.222 4.70667 145.595 5.8C143.995 6.89333 142.728 8.42667 141.795 10.4C140.862 12.3733 140.355 14.6667 140.275 17.28C140.168 20.3467 140.835 22.68 142.275 24.28C143.715 25.8533 145.635 26.64 148.035 26.64C150.382 26.6667 152.368 26.1067 153.995 24.96C155.622 23.7867 156.728 22.2 157.315 20.2H161.675C161.222 22.3067 160.355 24.12 159.075 25.64C157.795 27.16 156.208 28.3333 154.315 29.16C152.422 29.9867 150.342 30.4 148.075 30.4ZM168.681 30L173.921 4.64H165.081L165.841 0.839999H187.961L187.201 4.64H178.241L173.001 30H168.681ZM194.757 30L200.797 0.839999H207.397L210.797 23.16H210.997L223.397 0.839999H230.237L224.157 30H219.957L222.797 16.36L225.157 5.44H224.877L211.437 30H207.757L204.277 5.44H203.957L201.797 16.4L198.957 30H194.757ZM231.319 30L237.359 0.839999H257.159L256.399 4.6H240.839L239.039 13.36H252.719L251.959 16.92H238.319L236.359 26.24H251.919L251.159 30H231.319Z" fill="#6AF961"/>
</svg>
