<svg width="133" height="39" viewBox="0 0 133 39" fill="none" xmlns="http://www.w3.org/2000/svg">
<g filter="url(#filter0_d_202_151)">
<path d="M4.72172 30L10.7617 0.839999H15.0417L12.4817 13.32H28.2017L30.8017 0.839999H35.1217L29.0817 30H24.7617L27.4817 17.12H11.6417L9.00172 30H4.72172ZM49.3661 30.4C46.7528 30.4 44.5128 29.8533 42.6461 28.76C40.8061 27.64 39.4061 26.0933 38.4461 24.12C37.5128 22.12 37.0861 19.8 37.1661 17.16C37.2994 13.8267 38.0328 10.9067 39.3661 8.4C40.7261 5.89333 42.5528 3.94667 44.8461 2.56C47.1394 1.14667 49.7794 0.439999 52.7661 0.439999C55.4061 0.439999 57.6461 0.999999 59.4861 2.12C61.3261 3.24 62.7128 4.78667 63.6461 6.76C64.6061 8.73333 65.0328 11.04 64.9261 13.68C64.8194 17.0133 64.0861 19.9333 62.7261 22.44C61.3928 24.9467 59.5794 26.9067 57.2861 28.32C54.9928 29.7067 52.3528 30.4 49.3661 30.4ZM49.4861 26.68C51.6461 26.68 53.5261 26.1333 55.1261 25.04C56.7528 23.9467 58.0194 22.4133 58.9261 20.44C59.8594 18.4667 60.3794 16.1733 60.4861 13.56C60.5928 10.52 59.9261 8.2 58.4861 6.6C57.0461 4.97333 55.0728 4.16 52.5661 4.16C50.4328 4.16 48.5661 4.70667 46.9661 5.8C45.3661 6.89333 44.0994 8.42667 43.1661 10.4C42.2328 12.3467 41.7261 14.64 41.6461 17.28C41.5394 20.3467 42.2061 22.68 43.6461 24.28C45.1128 25.88 47.0594 26.68 49.4861 26.68ZM66.2061 30L72.2461 0.839999H78.8461L82.2461 23.16H82.4461L94.8461 0.839999H101.686L95.6061 30H91.4061L94.2461 16.36L96.6061 5.44H96.3261L82.8861 30H79.2061L75.7261 5.44H75.4061L73.2461 16.4L70.4061 30H66.2061ZM102.769 30L108.809 0.839999H128.609L127.849 4.6H112.289L110.489 13.36H124.169L123.409 16.92H109.769L107.809 26.24H123.369L122.609 30H102.769Z" fill="#6AF961"/>
</g>
<defs>
<filter id="filter0_d_202_151" x="0.721718" y="0.439999" width="131.887" height="37.96" filterUnits="userSpaceOnUse" color-interpolation-filters="sRGB">
<feFlood flood-opacity="0" result="BackgroundImageFix"/>
<feColorMatrix in="SourceAlpha" type="matrix" values="0 0 0 0 0 0 0 0 0 0 0 0 0 0 0 0 0 0 127 0" result="hardAlpha"/>
<feOffset dy="4"/>
<feGaussianBlur stdDeviation="2"/>
<feComposite in2="hardAlpha" operator="out"/>
<feColorMatrix type="matrix" values="0 0 0 0 0 0 0 0 0 0 0 0 0 0 0 0 0 0 0.25 0"/>
<feBlend mode="normal" in2="BackgroundImageFix" result="effect1_dropShadow_202_151"/>
<feBlend mode="normal" in="SourceGraphic" in2="effect1_dropShadow_202_151" result="shape"/>
</filter>
</defs>
</svg>
