<svg width="1920" height="27" viewBox="0 0 1920 27" fill="none" xmlns="http://www.w3.org/2000/svg">
<path d="M1547.53 2.82476C1601.05 5.66197 1629.95 5.36061 1684.17 1.39667C1712.93 -0.706623 1736.63 -0.448981 1764.26 2.26889C1815.74 7.33072 1820.55 7.44413 1888.98 5.21951C1909.98 4.53731 1920.77 5.20251 1919.96 7.12978C1919.05 9.27285 1899.68 12.8967 1875.59 15.4276C1855.09 17.5806 1848.77 17.8571 1831.51 17.3539C1809.2 16.7045 1783.36 14.7315 1762.25 12.0663C1743.89 9.75019 1703.23 9.79299 1674.72 12.1578C1638.48 15.1641 1607.36 15.3292 1565.16 12.7406C1520.92 10.0267 1516.9 10.0038 1289.99 11.1902C1135.38 11.9977 1118.17 11.9251 1084.71 10.3191C1038.73 8.11234 977.658 8.6603 931.073 11.6964C913.757 12.8261 885.705 14.2025 868.735 14.7564C851.766 15.3093 817.48 16.4927 792.545 17.3847C752.136 18.8297 734.38 18.8755 629.194 17.8064C564.286 17.1461 510.623 16.8775 509.945 17.2087C509.265 17.5408 467.164 18.243 416.387 18.7701C365.61 19.2971 315.848 20.1702 305.805 20.7092C295.761 21.2492 273.66 22.1582 256.69 22.729C239.72 23.3008 213.368 24.2118 198.13 24.7537C149.629 26.4791 98.8126 27.2221 48.4952 26.9426C2.97211 26.689 -0.362655 26.5528 0.0264851 24.9537C0.414366 23.3605 5.45933 23.1914 69.6926 22.6206C107.779 22.2815 153.108 21.4829 170.424 20.8454C205.419 19.5576 288.85 15.1919 306.434 13.7281C312.668 13.209 349.221 12.3607 387.663 11.8416C426.104 11.3235 473.991 10.4126 494.078 9.81892C528.491 8.80058 638.149 9.60202 703.76 11.3513C738.062 12.2662 851.257 8.30527 922.888 3.68399C967.95 0.777168 1043.61 0.111915 1084.73 2.26294C1121.85 4.20315 1222.21 4.35925 1402.07 2.75617C1495.93 1.91983 1530.77 1.93571 1547.53 2.82476Z" fill="#6AF961"/>
</svg>
