<svg width="225" height="436" viewBox="0 0 225 436" fill="none" xmlns="http://www.w3.org/2000/svg">
<path fill-rule="evenodd" clip-rule="evenodd" d="M193.309 1.22814C192.449 2.21105 190.975 2.7025 189.992 2.33391C189.009 1.96532 188.272 2.33391 188.272 3.07109C188.272 3.80827 187.166 4.42258 185.814 4.42258C184.463 4.42258 182.743 5.65121 182.006 7.12556C181.268 8.72278 179.057 11.0572 176.968 12.4087C174.757 13.7602 172.545 16.7089 171.808 19.1661C170.825 22.1148 169.719 23.3435 168.245 23.0977C166.771 22.852 166.156 23.5892 166.156 25.6779C166.156 27.3979 165.296 29.118 164.19 29.4866C163.208 29.8552 162.593 30.7152 162.962 31.3296C163.33 31.9439 162.593 32.6811 161.242 33.0496C159.767 33.4182 158.784 34.7697 158.784 36.2441C158.784 37.7184 158.047 38.8242 157.064 38.8242C156.081 38.8242 154.853 39.93 154.484 41.2815C153.993 42.6329 153.133 43.493 152.518 43.1244C151.413 42.3872 150.921 43.9844 151.29 47.5475C151.413 48.7761 150.061 49.8819 147.481 50.619C145.269 51.2334 142.812 53.0763 142.075 54.6735C141.215 56.1479 139.986 58.1137 139.249 58.8509C138.512 59.588 137.898 61.0624 137.898 62.0453C137.898 63.1511 135.44 66.7141 132.369 70.1542C129.297 73.4715 126.84 76.5431 126.84 77.0346C126.84 77.526 125.611 78.1403 124.137 78.5089C122.663 79.0004 121.803 79.6147 122.171 79.9833C122.663 80.4747 121.065 82.8091 118.854 85.1435C116.52 87.6008 114.922 90.058 115.168 90.5495C115.537 91.0409 114.308 92.2696 112.588 93.4982C110.868 94.604 109.762 96.2012 110.131 97.1841C110.499 98.167 109.762 99.2728 108.288 99.6413C107.059 100.133 105.953 100.993 105.953 101.607C105.953 102.221 105.339 102.713 104.602 102.713C102.636 102.713 98.8273 107.75 97.9673 111.559C97.4758 113.402 96.7387 114.753 96.2472 114.631C95.0186 114.262 86.7868 123.108 83.3466 128.514C81.7494 130.849 77.9407 135.517 74.7462 138.835C71.6746 142.152 69.0945 145.346 69.0945 145.838C69.0945 146.452 67.9887 147.435 66.6372 148.172C65.2857 148.909 64.18 150.384 64.18 151.612C64.18 153.578 60.9856 157.51 50.5422 168.567C47.9621 171.393 45.7505 174.219 45.7505 174.956C45.7505 175.693 44.7676 177.045 43.539 177.905C42.4332 178.765 40.4674 180.854 39.3616 182.574C38.2559 184.294 35.6758 187.488 33.5871 189.823C31.4985 192.157 29.5326 195.106 29.0412 196.334C28.6726 197.563 27.4439 198.546 26.461 198.546C25.3553 198.546 24.7409 198.915 25.2324 199.283C25.601 199.652 24.3724 201.372 22.4066 202.969C19.2121 205.672 13.3147 215.747 13.1918 218.818C13.069 219.433 12.4547 219.924 11.5946 219.678C10.7346 219.556 10.2432 219.801 10.2432 220.293C10.8575 224.102 9.87459 227.05 8.40023 226.436C6.68015 225.699 4.59147 228.77 5.08292 230.982C5.20578 231.473 4.46862 232.579 3.48572 233.439C0.168416 235.896 -1.06021 241.179 1.02846 243.391C2.37995 244.62 2.5028 245.234 1.39703 245.234C0.53699 245.234 0.78273 246.217 2.25709 247.814C3.97717 249.78 4.10003 250.517 2.8714 251.254C1.76563 251.991 1.64276 252.483 2.62566 253.097C3.36284 253.589 3.73143 254.572 3.23997 255.186C2.87139 255.8 2.0113 255.923 1.27412 255.554C0.291219 254.94 0.168356 255.432 0.659808 256.783C1.15126 258.012 1.51986 259.24 1.51986 259.486C1.51986 259.855 2.13422 259.732 2.8714 259.24C3.8543 258.626 3.97712 259.977 3.36281 263.54C2.50277 268.578 3.36279 269.561 8.03158 268.701C8.6459 268.578 8.76878 269.069 8.27732 269.807C5.45148 274.352 17.3692 272.755 22.5295 267.841C24.2496 266.243 26.2153 264.892 27.0753 264.892C27.9354 264.892 28.5497 264.401 28.5497 263.786C28.5497 263.172 31.007 261.575 34.0785 260.1C37.1501 258.626 39.6074 256.906 39.6074 256.169C39.6074 255.554 40.0989 255.186 40.7132 255.677C41.3275 256.046 42.8018 255.063 43.7847 253.589C44.8905 252.114 45.7505 251.254 45.7505 251.746C45.7505 253.22 58.0369 246.585 58.774 244.742C59.1426 243.76 60.4941 243.268 61.7227 243.637C63.1971 244.005 64.18 243.391 64.6714 241.794C65.1629 240.442 66.6372 239.091 67.8659 238.722C69.2173 238.354 70.2003 237.371 69.9545 236.388C69.7088 235.528 69.7088 235.159 69.9545 235.651C70.3231 236.265 71.6746 236.634 72.9033 236.634C74.2548 236.634 74.9919 236.019 74.6233 235.405C74.2547 234.668 74.7462 234.053 75.7291 234.053C76.8349 233.931 78.3092 233.808 79.1693 233.685C80.0293 233.685 81.3808 232.21 82.2408 230.49C83.1009 228.77 83.838 228.156 83.838 228.893C83.838 229.999 85.5581 229.63 89.3669 227.787C94.8957 225.084 95.6329 222.75 90.8412 223.241C84.5752 223.61 82.1179 223.119 83.5923 221.644C84.5752 220.661 85.4353 220.661 86.7868 221.767C88.1383 222.873 88.7526 222.873 89.4898 221.644C90.1041 220.784 90.5955 219.433 90.5955 218.818C90.5955 218.081 91.4555 217.59 92.4384 217.59C93.4213 217.59 94.7728 216.975 95.2643 216.361C95.7557 215.624 96.1243 216.238 95.8786 217.59C95.6329 218.941 95.1414 220.293 94.7729 220.661C94.2814 221.03 94.65 222.013 95.6329 222.873C96.6158 223.733 97.353 223.856 97.353 223.119C97.353 222.504 98.7044 221.89 100.425 221.89C102.267 221.89 104.848 220.538 106.445 218.818C108.042 217.098 110.131 215.747 111.114 215.747C113.694 215.747 127.332 209.604 128.314 208.006C128.683 207.392 130.035 206.655 131.386 206.409C135.563 205.918 139.126 204.443 139.126 203.215C139.126 202.6 139.741 202.478 140.355 202.846C141.092 203.215 141.584 202.846 141.584 201.986C141.584 200.758 141.829 200.758 142.689 202.109C143.304 202.969 144.409 203.338 145.147 202.969C145.884 202.478 144.901 204.689 142.812 207.884C140.724 211.201 138.143 214.272 137.161 214.887C135.563 215.87 135.441 216.238 136.792 217.098C138.021 217.835 137.652 218.327 135.44 219.31C133.72 219.924 132.86 220.538 133.352 220.538C134.58 220.661 131.017 224.347 129.666 224.347C127.577 224.47 118.117 235.405 118.977 236.756C119.468 237.739 119.345 237.862 118.363 237.371C117.503 236.756 116.274 238.108 115.045 240.934C114.062 243.514 112.097 245.725 110.745 246.094C109.516 246.463 107.551 248.674 106.445 250.886C105.339 253.22 103.619 255.063 102.636 255.063C101.407 255.063 101.039 255.8 101.53 256.906C102.022 258.257 101.162 259.24 99.1959 259.977C97.4758 260.592 96.1243 262.189 96.1243 263.418C96.1243 264.646 94.7728 266.489 93.0527 267.349C90.104 268.946 82.8551 277.178 84.4523 277.178C84.8209 277.178 84.5752 278.407 83.7152 279.758C82.6094 281.847 82.118 282.093 81.2579 280.741C80.5208 279.513 80.1521 279.758 80.1521 281.724C80.1521 283.321 79.6607 284.55 79.0464 284.55C77.3263 284.55 71.7974 289.833 71.306 291.922C71.0603 292.905 68.603 296.099 65.7772 299.171C62.8285 302.242 60.4941 305.437 60.4941 306.174C60.4941 306.911 59.2655 308.508 57.914 309.86C54.2281 313.054 44.5219 325.832 44.5219 327.306C44.5219 328.044 44.0305 328.781 43.539 329.026C40.4674 330.255 18.1064 363.305 9.99744 378.663C2.99425 391.809 2.50281 393.898 2.25709 408.027C2.01136 414.785 2.13416 419.331 2.50275 418.102C3.48566 413.433 4.59145 416.382 4.22286 422.894C3.73141 429.037 4.09998 430.143 7.0487 433.337C10.9803 437.392 14.1748 436.654 15.5263 431.371C16.0177 429.651 18.4749 424.86 20.9322 420.559C24.7409 414.539 26.9525 412.205 32.3585 409.379C36.0444 407.413 39.2388 405.447 39.6074 404.956C39.976 404.464 41.3275 403.481 42.6789 402.744C44.0304 402.007 44.399 401.27 43.539 401.27C42.3104 401.27 42.3104 400.901 43.539 399.55C44.399 398.69 45.8734 398.198 46.6106 398.444C47.4706 398.813 48.2078 398.444 48.2078 397.707C48.2078 396.97 48.945 396.355 49.9279 396.355C52.2623 396.355 53.6137 392.424 51.6479 391.195C50.4193 390.458 50.4193 389.966 51.8937 388.984C52.8766 388.369 54.4738 387.755 55.3338 387.755C56.1939 387.755 56.5625 387.141 56.1939 386.526C55.8253 385.789 56.1939 385.298 57.1768 385.298C58.4054 385.298 58.774 384.438 58.4054 382.84C58.0368 381.489 58.4054 380.383 59.1426 380.383C59.7569 380.383 60.1255 379.523 59.7569 378.54C59.2655 377.557 58.5283 377.066 57.914 377.434C57.2997 377.803 56.8082 377.434 56.8082 376.82C56.8082 375.1 58.8969 375.1 59.8798 376.697C60.3712 377.434 61.2313 377.68 61.8456 377.189C62.7057 376.697 62.5828 375.96 61.8456 374.977C60.9856 373.871 61.3541 372.889 63.1971 371.291C65.04 369.694 65.2858 368.834 64.3029 368.097C63.1971 367.483 63.3199 366.991 64.7943 366.5C65.9 366.008 66.3915 366.131 66.0229 366.868C65.6543 367.605 65.9 368.097 66.6372 368.097C67.3744 368.097 68.3573 367.114 68.7259 365.885C69.2174 364.78 70.446 363.182 71.4289 362.322C73.149 360.971 73.149 360.848 71.5517 360.725C70.0774 360.602 70.2003 360.234 72.0432 358.882C73.2719 358.022 73.8862 356.671 73.5176 355.933C73.0261 355.196 74.1319 354.336 75.9748 353.845C78.3092 353.23 78.6778 352.739 77.4491 352.002C76.0976 351.142 76.0977 350.896 77.5721 350.896C78.9235 350.896 78.9235 350.527 77.5721 348.807C76.5891 347.579 76.4663 347.087 77.3263 347.579C78.1864 348.07 79.2921 347.579 80.0293 346.35C80.7665 345.121 81.3808 344.63 81.3808 345.244C81.3808 345.859 82.4866 345.367 83.7152 344.261C85.0667 343.033 85.8038 341.313 85.4352 340.33C85.0666 339.347 85.3124 338.61 85.9267 338.61C87.7697 338.61 95.2643 330.747 93.79 330.255C91.947 329.641 92.0698 327.429 94.0356 327.798C94.7728 328.044 95.3872 327.429 95.1414 326.569C95.0186 325.832 95.7557 325.095 96.7386 325.095C97.7215 325.095 98.5816 324.112 98.5816 322.883C98.5816 321.778 100.547 319.443 102.759 317.723C105.093 316.003 106.691 314.283 106.322 313.669C106.076 313.177 106.322 312.809 106.936 312.809C107.673 312.809 107.919 311.703 107.551 310.228C106.936 308.263 107.305 307.771 109.148 308.14C110.991 308.385 111.359 307.894 111.114 305.068C110.868 302.857 111.359 301.874 112.342 301.997C113.079 302.242 114.677 300.031 115.66 297.082C116.765 294.256 118.24 291.922 119.1 291.922C120.083 291.922 121.311 290.57 121.926 288.973C123.154 285.656 125.611 283.567 125.611 285.902C125.611 288.482 126.963 286.27 127.577 282.584C128.314 278.284 129.174 276.933 130.649 277.793C131.263 278.284 131.755 277.67 131.755 276.687C131.755 275.581 132.86 274.721 134.212 274.721C135.563 274.721 136.669 273.861 136.669 272.878C136.669 271.772 137.529 270.667 138.512 270.175C139.618 269.807 140.355 268.455 140.109 267.226C139.618 264.523 148.587 255.923 150.675 257.152C151.413 257.52 151.658 257.52 151.167 257.029C150.307 255.923 154.484 251.377 156.327 251.377C157.064 251.377 157.556 250.763 157.556 250.026C157.556 249.411 157.064 249.043 156.45 249.411C155.836 249.903 155.59 249.043 155.959 247.691C156.327 246.34 157.31 245.234 158.293 245.234C159.153 245.234 160.505 244.128 161.242 242.777C161.979 241.425 163.207 240.442 164.068 240.688C164.928 240.811 165.542 239.828 165.542 238.476C165.542 236.879 166.402 236.142 167.753 236.142C169.228 236.265 169.842 235.405 169.842 233.562C169.842 231.719 170.825 230.368 172.422 229.876C174.388 229.262 174.634 228.77 173.528 228.033C172.422 227.296 172.668 226.804 174.511 226.313C175.862 225.822 177.582 223.856 178.32 221.767C179.057 219.678 180.163 218.327 180.9 218.818C181.514 219.187 182.128 218.696 182.128 217.713C182.128 216.607 182.743 215.747 183.357 215.747C184.094 215.747 184.586 215.01 184.586 214.027C184.586 213.044 185.691 211.078 187.166 209.481C188.517 207.884 189.377 207.146 189.009 208.006C188.517 208.867 189.132 209.112 190.852 208.744C192.326 208.375 193.063 207.392 192.695 206.409C192.326 205.426 192.572 204.689 193.186 204.689C195.398 204.689 199.083 200.02 202.032 193.754C203.875 189.577 205.841 187.12 207.684 186.751C209.158 186.26 210.387 185.277 210.387 184.294C210.387 183.434 211.493 182.082 212.844 181.345C214.196 180.608 214.933 179.379 214.564 178.274C214.073 177.168 214.564 176.431 215.793 176.431C218.004 176.431 218.373 175.079 216.407 173.113C215.547 172.253 215.67 171.393 216.776 170.165C217.759 169.182 218.864 167.462 219.233 166.356C219.847 165.004 220.953 164.513 222.796 165.004C225.253 165.619 225.376 165.373 224.516 161.564C224.025 159.23 223.165 156.773 222.55 156.035C221.936 155.298 221.69 153.701 222.182 152.595C222.796 150.998 222.305 150.752 219.233 151.367C215.916 152.104 215.547 151.858 216.161 149.647C216.653 147.558 215.547 146.821 208.667 144.609C198.961 141.415 189.254 141.415 179.671 144.486C175.985 145.715 171.316 147.066 169.228 147.435C164.559 148.418 145.638 155.298 141.338 157.633C139.372 158.616 137.898 159.107 137.898 158.738C137.898 158.37 134.703 159.967 130.895 162.301C126.963 164.636 122.54 166.602 121.065 166.602C119.468 166.602 118.24 167.093 118.24 167.707C118.24 168.322 116.642 169.182 114.677 169.673C112.834 170.042 110.008 171.516 108.656 172.868C107.182 174.096 104.356 175.448 102.267 175.694C100.179 175.939 97.4759 177.045 96.2472 178.151C95.1415 179.257 93.5442 180.117 92.807 180.117C92.1927 180.117 89.244 181.837 86.4182 183.802C83.5923 185.891 80.6436 187.243 79.9064 186.751C79.0464 186.26 78.9235 186.383 79.415 187.243C80.7665 189.331 73.3947 189.086 71.6746 186.997C70.5689 185.645 70.9375 185.154 73.2719 184.54C75.2377 184.048 76.0977 183.188 75.7291 182.082C75.3605 181.222 76.712 178.888 78.5549 176.922C80.3979 174.956 82.8551 171.762 83.838 169.919C84.8209 167.953 87.6468 164.636 90.2269 162.547C92.807 160.459 94.8957 158.001 94.8957 157.264C94.8957 156.404 96.2472 154.684 97.9673 153.332C100.056 151.612 100.547 150.629 99.5645 150.261C98.7044 149.892 99.1959 149.524 100.793 149.524C102.39 149.401 103.373 148.909 103.005 148.295C102.513 147.681 102.882 146.944 103.496 146.698C104.233 146.452 104.97 145.101 105.093 143.626C105.093 142.152 105.585 141.169 105.953 141.415C106.322 141.66 107.673 141.046 109.025 140.063C110.254 139.08 110.868 138.343 110.376 138.343C109.885 138.343 110.376 137.483 111.359 136.377C112.465 135.394 113.325 133.674 113.325 132.814C113.325 131.831 114.308 130.849 115.537 130.357C117.748 129.62 123.523 121.265 122.908 119.545C122.663 118.931 123.891 117.702 125.611 116.842C127.332 115.859 128.314 115.122 127.823 114.999C127.331 114.999 128.314 113.033 129.912 110.576C131.632 108.119 132.983 105.416 132.983 104.556C132.983 103.696 134.335 102.59 135.932 102.221C137.898 101.73 139.495 100.01 140.478 97.307C141.584 94.3582 142.566 93.3753 143.795 93.8668C145.024 94.2354 145.392 93.9897 144.778 93.1296C144.41 92.3924 145.147 91.1638 146.498 90.4266C147.85 89.6895 148.955 87.9694 148.955 86.7407C148.955 85.3893 149.57 84.2835 150.184 84.2835C150.921 84.2835 151.413 83.4234 151.413 82.4405C151.413 81.4576 152.15 80.5976 153.133 80.5976C154.239 80.5976 154.607 79.6147 154.116 77.526C153.87 75.6831 154.116 74.4545 154.976 74.4545C157.187 74.4545 162.593 68.0656 161.979 66.2226C161.61 65.3626 162.347 63.8882 163.699 63.1511C165.05 62.291 166.156 61.1853 166.156 60.6938C166.156 60.0795 167.139 58.6051 168.368 57.3765C172.914 52.3391 173.651 51.1105 172.299 51.1105C171.562 51.1105 171.316 50.4962 171.685 49.759C172.176 49.0218 173.282 48.7761 174.142 49.1447C175.74 49.6361 178.442 45.0902 178.442 41.8958C178.442 41.0357 179.425 39.93 180.654 39.5614C181.883 39.0699 183.848 36.2441 185.077 32.8039C186.429 28.8723 188.026 26.5379 189.746 26.1693C191.097 25.8007 191.835 24.9407 191.343 24.2035C190.975 23.4663 191.466 22.4834 192.572 22.1148C193.8 21.6234 194.169 20.5176 193.8 19.1661C193.309 17.5689 193.923 16.7089 195.643 16.0946C197.363 15.6031 197.978 14.6202 197.609 13.3916C197.118 12.2858 197.732 11.3029 199.206 10.9343C200.681 10.5657 201.295 9.58282 200.926 8.59992C200.558 7.61702 200.804 6.87984 201.541 6.87984C203.507 6.87984 201.786 2.33391 199.575 1.47387C198.346 1.10528 196.872 0.490966 196.135 0.122377C195.398 -0.246212 194.046 0.24524 193.309 1.22814ZM69.7088 192.526C68.8488 193.877 65.4086 194 65.4086 192.649C65.4086 192.157 66.5144 191.666 67.8659 191.543C69.2173 191.42 70.0774 191.789 69.7088 192.526ZM141.584 196.089C141.584 196.703 140.969 197.317 140.232 197.317C139.618 197.317 139.372 196.703 139.741 196.089C140.109 195.352 140.724 194.86 141.092 194.86C141.338 194.86 141.584 195.352 141.584 196.089ZM103.619 216.115C102.39 217.221 102.268 217.098 103.005 215.378C103.373 214.15 104.11 213.535 104.479 213.904C104.848 214.272 104.479 215.255 103.619 216.115ZM101.039 218.204C101.039 218.818 100.793 219.433 100.547 219.433C100.179 219.433 99.5645 218.818 99.1959 218.204C98.8273 217.467 99.0731 216.975 99.6874 216.975C100.425 216.975 101.039 217.467 101.039 218.204ZM127.086 229.507C126.226 230.368 125.611 230.49 125.611 229.753C125.611 228.033 127.086 226.559 127.946 227.419C128.192 227.787 127.823 228.77 127.086 229.507ZM64.3029 237.494C63.32 239.337 63.0742 239.337 62.9513 237.739C62.9513 235.651 64.1799 233.808 65.1628 234.668C65.4086 235.036 65.04 236.265 64.3029 237.494ZM61.7227 237.862C61.7227 238.476 61.477 239.091 61.2313 239.091C60.8627 239.091 60.2483 238.476 59.8798 237.862C59.5112 237.125 59.7569 236.634 60.3712 236.634C61.1084 236.634 61.7227 237.125 61.7227 237.862ZM64.18 240.811C64.18 241.179 63.6885 241.794 62.9513 242.162C62.337 242.531 61.7227 242.285 61.7227 241.671C61.7227 240.934 62.337 240.319 62.9513 240.319C63.6885 240.319 64.18 240.565 64.18 240.811ZM14.2976 268.455C14.6662 269.069 14.1747 269.807 13.1918 270.298C12.0861 270.667 11.3489 270.298 11.3489 269.192C11.3489 267.226 13.3147 266.735 14.2976 268.455ZM87.8925 277.793C88.3839 278.776 88.0154 279.881 87.1553 280.373C86.2953 280.864 86.0496 280.864 86.541 280.25C87.0325 279.758 86.9096 278.53 86.1725 277.547C85.3124 276.564 85.1895 275.95 86.0495 275.95C86.6639 275.95 87.5239 276.81 87.8925 277.793Z" fill="#6AF961"/>
<path fill-rule="evenodd" clip-rule="evenodd" d="M80.1527 349.79C80.1527 350.405 80.767 350.65 81.3813 350.282C82.1185 349.913 82.61 349.299 82.61 348.93C82.61 348.685 82.1185 348.439 81.3813 348.439C80.767 348.439 80.1527 349.053 80.1527 349.79Z" fill="#6AF961"/>
</svg>
