<svg width="1920" height="27" viewBox="0 0 1920 27" fill="none" xmlns="http://www.w3.org/2000/svg">
<path d="M372.474 2.82476C318.947 5.66197 290.052 5.36061 235.834 1.39667C207.067 -0.706623 183.369 -0.448981 155.737 2.26889C104.262 7.33072 99.4462 7.44413 31.0167 5.21951C10.0208 4.53731 -0.770752 5.20251 0.0428467 7.12978C0.947021 9.27285 20.3247 12.8967 44.4124 15.4276C64.9095 17.5806 71.229 17.8571 88.4897 17.3539C110.799 16.7045 136.636 14.7315 157.754 12.0663C176.107 9.75019 216.77 9.79299 245.279 12.1578C281.516 15.1641 312.639 15.3292 354.843 12.7406C399.081 10.0267 403.1 10.0038 630.011 11.1902C784.619 11.9977 801.826 11.9251 835.286 10.3191C881.267 8.11234 942.342 8.6603 988.927 11.6964C1006.24 12.8261 1034.29 14.2025 1051.26 14.7564C1068.23 15.3093 1102.52 16.4927 1127.46 17.3847C1167.86 18.8297 1185.62 18.8755 1290.81 17.8064C1355.71 17.1461 1409.38 16.8775 1410.06 17.2087C1410.74 17.5408 1452.84 18.243 1503.61 18.7701C1554.39 19.2971 1604.15 20.1702 1614.2 20.7092C1624.24 21.2492 1646.34 22.1582 1663.31 22.729C1680.28 23.3008 1706.63 24.2118 1721.87 24.7537C1770.37 26.4791 1821.19 27.2221 1871.5 26.9426C1917.03 26.689 1920.36 26.5528 1919.97 24.9537C1919.59 23.3605 1914.54 23.1914 1850.31 22.6206C1812.22 22.2815 1766.89 21.4829 1749.58 20.8454C1714.58 19.5576 1631.15 15.1919 1613.57 13.7281C1607.33 13.209 1570.78 12.3607 1532.34 11.8416C1493.9 11.3235 1446.01 10.4126 1425.92 9.81892C1391.51 8.80058 1281.85 9.60202 1216.24 11.3513C1181.94 12.2662 1068.74 8.30527 997.112 3.68399C952.05 0.777168 876.387 0.111915 835.266 2.26294C798.151 4.20315 697.79 4.35925 517.929 2.75617C424.068 1.91983 389.234 1.93571 372.474 2.82476Z" fill="#6AF961"/>
</svg>
