<svg width="461" height="20" viewBox="0 0 461 20" fill="none" xmlns="http://www.w3.org/2000/svg">
<g filter="url(#filter0_d_203_62)">
<path d="M409.945 6.65577C413.188 6.42063 418.287 6.12518 421.277 6.00002C432.194 5.54295 456.044 7.32931 456.612 8.64703C457.082 9.73954 453.825 9.9139 436.067 9.74656C426.729 9.65867 418.931 9.76889 418.739 9.99143C418.547 10.214 404.711 9.84128 387.992 9.16266C356.929 7.90271 349.028 8.02181 339.27 9.89494C334.318 10.8458 310.857 10.8466 289.992 9.89616C281.059 9.4888 270.692 9.30553 266.954 9.48767C254.574 10.0925 200.384 9.75461 182.136 8.959C175.518 8.67102 165.576 8.08857 160.042 7.66591C149.743 6.87924 134.476 6.94041 116.784 7.83845C107.073 8.332 104.501 8.55373 93.1823 9.87372C82.084 11.1678 72.6409 11.2884 61.6681 10.2769C45.3646 8.77379 43.1155 8.78887 36.1925 10.4454C31.0158 11.6843 29.1473 11.8539 23.7839 11.5718C16.9409 11.2109 9.05497 9.88939 6.66754 8.70313C5.08321 7.91573 3.9727 5.92641 4.53765 4.8874C4.74922 4.4983 6.14026 4.56864 8.56673 5.09125C10.6049 5.53039 16.1331 6.07813 20.8515 6.30851C28.5413 6.68391 30.0145 6.58497 35.0686 5.35657C40.4431 4.05039 41.5783 4.00174 59.3321 4.32143C79.8074 4.68975 80.8249 4.65807 96.3514 3.17679C109.299 1.94178 122.818 1.14219 134.43 0.924628C139.158 0.836085 145.614 0.547916 148.776 0.28363C153.314 -0.0951509 157.31 0.100439 167.759 1.21334C176.011 2.09253 183.932 2.58454 188.797 2.52022C193.089 2.46382 205.206 2.5602 215.724 2.73485C238.243 3.10847 256.361 3.11666 268.919 2.75997C273.899 2.61902 291.851 3.02531 308.813 3.66356C326.878 4.34353 340.723 4.61308 342.238 4.31511C347.025 3.37219 361.573 3.77308 382.875 5.43314C398.494 6.65069 405.595 6.97183 409.945 6.65577Z" fill="#6AF961"/>
</g>
<defs>
<filter id="filter0_d_203_62" x="0.388428" y="0.107056" width="460.266" height="19.5824" filterUnits="userSpaceOnUse" color-interpolation-filters="sRGB">
<feFlood flood-opacity="0" result="BackgroundImageFix"/>
<feColorMatrix in="SourceAlpha" type="matrix" values="0 0 0 0 0 0 0 0 0 0 0 0 0 0 0 0 0 0 127 0" result="hardAlpha"/>
<feOffset dy="4"/>
<feGaussianBlur stdDeviation="2"/>
<feComposite in2="hardAlpha" operator="out"/>
<feColorMatrix type="matrix" values="0 0 0 0 0 0 0 0 0 0 0 0 0 0 0 0 0 0 0.25 0"/>
<feBlend mode="normal" in2="BackgroundImageFix" result="effect1_dropShadow_203_62"/>
<feBlend mode="normal" in="SourceGraphic" in2="effect1_dropShadow_203_62" result="shape"/>
</filter>
</defs>
</svg>
