<svg width="461" height="21" viewBox="0 0 461 21" fill="none" xmlns="http://www.w3.org/2000/svg">
<g filter="url(#filter0_d_203_65)">
<path d="M409.793 7.10084C413.036 6.8657 418.136 6.57025 421.125 6.44508C432.042 5.98802 455.893 7.77438 456.46 9.0921C456.931 10.1846 453.674 10.359 435.916 10.1916C426.577 10.1037 418.779 10.214 418.587 10.4365C418.395 10.6591 404.559 10.2863 387.841 9.60773C356.778 8.34778 348.876 8.46688 339.119 10.34C334.167 11.2909 310.705 11.2917 289.841 10.3412C280.908 9.93387 270.541 9.75059 266.803 9.93274C254.423 10.5376 200.233 10.1997 181.984 9.40407C175.367 9.11609 165.425 8.53364 159.891 8.11097C149.591 7.32431 134.324 7.38548 116.633 8.28351C106.922 8.77707 104.349 8.9988 93.0308 10.3188C81.9325 11.6128 72.4894 11.7335 61.5166 10.7219C45.2132 9.21886 42.9641 9.23394 36.041 10.8905C30.8644 12.1294 28.9958 12.299 23.6324 12.0168C16.7894 11.6559 8.90352 10.3345 6.5161 9.1482C4.93176 8.3608 3.82126 6.37148 4.38621 5.33247C4.59778 4.94337 5.98882 5.01371 8.41529 5.53632C10.4535 5.97545 15.9816 6.5232 20.7 6.75358C28.3898 7.12898 29.8631 7.03004 34.9172 5.80164C40.2916 4.49546 41.4268 4.44681 59.1807 4.76649C79.656 5.13482 80.6734 5.10314 96.1999 3.62186C109.148 2.38685 122.666 1.58726 134.279 1.3697C139.007 1.28115 145.462 0.992984 148.624 0.728698C153.162 0.349917 157.159 0.545507 167.608 1.65841C175.859 2.5376 183.781 3.02961 188.646 2.96529C192.937 2.90889 205.054 3.00526 215.573 3.17992C238.092 3.55354 256.21 3.56173 268.768 3.20504C273.747 3.06409 291.699 3.47038 308.661 4.10863C326.726 4.7886 340.572 5.05815 342.086 4.76018C346.874 3.81726 361.421 4.21815 382.724 5.87821C398.343 7.09575 405.443 7.4169 409.793 7.10084Z" fill="#6AF961"/>
</g>
<defs>
<filter id="filter0_d_203_65" x="0.236969" y="0.552124" width="460.266" height="19.5824" filterUnits="userSpaceOnUse" color-interpolation-filters="sRGB">
<feFlood flood-opacity="0" result="BackgroundImageFix"/>
<feColorMatrix in="SourceAlpha" type="matrix" values="0 0 0 0 0 0 0 0 0 0 0 0 0 0 0 0 0 0 127 0" result="hardAlpha"/>
<feOffset dy="4"/>
<feGaussianBlur stdDeviation="2"/>
<feComposite in2="hardAlpha" operator="out"/>
<feColorMatrix type="matrix" values="0 0 0 0 0 0 0 0 0 0 0 0 0 0 0 0 0 0 0.25 0"/>
<feBlend mode="normal" in2="BackgroundImageFix" result="effect1_dropShadow_203_65"/>
<feBlend mode="normal" in="SourceGraphic" in2="effect1_dropShadow_203_65" result="shape"/>
</filter>
</defs>
</svg>
