<svg width="199" height="31" viewBox="0 0 199 31" fill="none" xmlns="http://www.w3.org/2000/svg">
<path d="M0.264688 30L6.30469 0.839999H17.3047C18.9047 0.839999 20.358 1.13333 21.6647 1.72C22.998 2.28 24.038 3.17333 24.7847 4.4C25.558 5.6 25.918 7.16 25.8647 9.08C25.7847 11.2133 25.238 13.0533 24.2247 14.6C23.238 16.12 21.8647 17.3067 20.1047 18.16C18.3447 18.9867 16.318 19.4 14.0247 19.4H6.78469L4.58469 30H0.264688ZM16.4647 4.72H9.82469L7.50469 15.84H14.1047C16.3714 15.84 18.1314 15.28 19.3847 14.16C20.638 13.04 21.3047 11.48 21.3847 9.48C21.438 7.88 21.0247 6.69333 20.1447 5.92C19.2647 5.12 18.038 4.72 16.4647 4.72ZM26.3194 30L32.3594 0.839999H44.8394C47.7727 0.839999 49.9327 1.52 51.3194 2.88C52.7327 4.24 53.4127 6.04 53.3594 8.28C53.2794 10.2533 52.6927 11.9333 51.5994 13.32C50.5327 14.7067 49.0394 15.64 47.1194 16.12L46.9994 16.4C48.1994 16.6933 49.0527 17.32 49.5594 18.28C50.0927 19.2133 50.186 20.52 49.8394 22.2L48.7994 27.12C48.6927 27.6267 48.6127 28.1333 48.5594 28.64C48.5327 29.12 48.5594 29.5733 48.6394 30H44.3194C44.2394 29.6267 44.2127 29.24 44.2394 28.84C44.266 28.4133 44.3594 27.8533 44.5194 27.16L45.4794 22.64C45.826 20.9867 45.7194 19.8133 45.1594 19.12C44.626 18.4 43.5994 18.04 42.0794 18.04H33.0794L30.5994 30H26.3194ZM33.7594 14.68H42.5194C44.4127 14.68 45.9327 14.1733 47.0794 13.16C48.226 12.1467 48.8394 10.7733 48.9194 9.04C48.9727 7.62667 48.5727 6.50667 47.7194 5.68C46.8927 4.82666 45.5327 4.4 43.6394 4.4H35.8794L33.7594 14.68ZM68.0731 30.4C65.4598 30.4 63.2198 29.8533 61.3531 28.76C59.5131 27.64 58.1131 26.0933 57.1531 24.12C56.2198 22.12 55.7931 19.8 55.8731 17.16C56.0065 13.8267 56.7398 10.9067 58.0731 8.4C59.4331 5.89333 61.2598 3.94667 63.5531 2.56C65.8465 1.14667 68.4865 0.439999 71.4731 0.439999C74.1131 0.439999 76.3531 0.999999 78.1931 2.12C80.0331 3.24 81.4198 4.78667 82.3531 6.76C83.3131 8.73333 83.7398 11.04 83.6331 13.68C83.5265 17.0133 82.7931 19.9333 81.4331 22.44C80.0998 24.9467 78.2865 26.9067 75.9931 28.32C73.6998 29.7067 71.0598 30.4 68.0731 30.4ZM68.1931 26.68C70.3531 26.68 72.2331 26.1333 73.8331 25.04C75.4598 23.9467 76.7265 22.4133 77.6331 20.44C78.5665 18.4667 79.0865 16.1733 79.1931 13.56C79.2998 10.52 78.6331 8.2 77.1931 6.6C75.7531 4.97333 73.7798 4.16 71.2731 4.16C69.1398 4.16 67.2731 4.70667 65.6731 5.8C64.0731 6.89333 62.8065 8.42667 61.8731 10.4C60.9398 12.3467 60.4331 14.64 60.3531 17.28C60.2465 20.3467 60.9131 22.68 62.3531 24.28C63.8198 25.88 65.7665 26.68 68.1931 26.68ZM84.8975 30.36C84.0975 30.36 83.3508 30.2667 82.6575 30.08C81.9642 29.92 81.4308 29.7067 81.0575 29.44L81.7775 25.84C82.0442 26.1067 82.4308 26.32 82.9375 26.48C83.4442 26.6133 83.9908 26.68 84.5775 26.68C85.9908 26.68 87.1508 26.3067 88.0575 25.56C88.9908 24.8133 89.6575 23.4667 90.0575 21.52L94.4175 0.839999H98.6975L94.1775 22.36C93.7775 24.3867 93.1242 25.9867 92.2175 27.16C91.3375 28.3067 90.2708 29.1333 89.0175 29.64C87.7642 30.12 86.3908 30.36 84.8975 30.36ZM99.7959 30L105.836 0.839999H125.636L124.876 4.6H109.316L107.516 13.36H121.196L120.436 16.92H106.796L104.836 26.24H120.396L119.636 30H99.7959ZM137.723 30.4C135.083 30.4 132.83 29.8533 130.963 28.76C129.097 27.64 127.683 26.0933 126.723 24.12C125.79 22.12 125.363 19.8 125.443 17.16C125.577 13.8 126.31 10.88 127.643 8.4C129.003 5.89333 130.83 3.94667 133.123 2.56C135.443 1.17333 138.11 0.479999 141.123 0.479999C143.443 0.479999 145.483 0.919998 147.243 1.8C149.03 2.65333 150.417 3.85333 151.403 5.4C152.417 6.92 152.937 8.68 152.963 10.68H148.683C148.577 8.76 147.817 7.2 146.403 6C144.99 4.77333 143.163 4.16 140.923 4.16C138.763 4.16 136.87 4.70667 135.243 5.8C133.643 6.89333 132.377 8.42667 131.443 10.4C130.51 12.3733 130.003 14.6667 129.923 17.28C129.817 20.3467 130.483 22.68 131.923 24.28C133.363 25.8533 135.283 26.64 137.683 26.64C140.03 26.6667 142.017 26.1067 143.643 24.96C145.27 23.7867 146.377 22.2 146.963 20.2H151.323C150.87 22.3067 150.003 24.12 148.723 25.64C147.443 27.16 145.857 28.3333 143.963 29.16C142.07 29.9867 139.99 30.4 137.723 30.4ZM158.329 30L163.569 4.64H154.729L155.489 0.839999H177.609L176.849 4.64H167.889L162.649 30H158.329ZM185.479 30.4C181.879 30.4 179.145 29.5467 177.279 27.84C175.412 26.1067 174.559 23.7733 174.719 20.84H178.999C178.945 22.76 179.505 24.2533 180.679 25.32C181.852 26.3867 183.465 26.92 185.519 26.92C187.545 26.92 189.159 26.4667 190.359 25.56C191.585 24.6267 192.225 23.3867 192.279 21.84C192.332 20.5067 191.932 19.5067 191.079 18.84C190.252 18.1467 188.865 17.5467 186.919 17.04C183.585 16.2133 181.225 15.2 179.839 14C178.452 12.7733 177.799 11.12 177.879 9.04C177.932 7.22667 178.439 5.69333 179.399 4.44C180.385 3.16 181.692 2.17333 183.319 1.48C184.945 0.786665 186.785 0.439999 188.839 0.439999C190.839 0.439999 192.585 0.813332 194.079 1.56C195.572 2.28 196.705 3.29333 197.479 4.6C198.279 5.88 198.652 7.4 198.599 9.16H194.199C194.279 7.56 193.785 6.29333 192.719 5.36C191.679 4.42667 190.252 3.96 188.439 3.96C186.759 3.96 185.359 4.36 184.239 5.16C183.145 5.96 182.585 7.06667 182.559 8.48C182.505 9.68 182.945 10.64 183.879 11.36C184.839 12.0533 186.372 12.64 188.479 13.12C191.625 13.84 193.839 14.8133 195.119 16.04C196.399 17.24 196.999 18.9467 196.919 21.16C196.865 23.0533 196.345 24.6933 195.359 26.08C194.372 27.4667 193.025 28.5333 191.319 29.28C189.612 30.0267 187.665 30.4 185.479 30.4Z" fill="#6AF961"/>
</svg>
